<?xml version="1.0" encoding="iso-8859-1"?>
<!-- Uploaded to: SVG Repo, www.svgrepo.com, Generator: SVG Repo Mixer Tools -->
<svg height="800px" width="800px" version="1.1" id="Layer_1" xmlns="http://www.w3.org/2000/svg" xmlns:xlink="http://www.w3.org/1999/xlink" 
	 viewBox="0 0 511.999 511.999" xml:space="preserve">
<path style="fill:#FFAD61;" d="M336.105,501.801H175.894c-44.465,0-80.511-36.046-80.511-80.511V227.583h321.233v193.706
	C416.616,465.755,380.57,501.801,336.105,501.801z"/>
<path style="fill:#72BEDE;" d="M284.917,335.274c0-15.971-12.947-28.918-28.918-28.918s-28.918,12.947-28.918,28.918
	c0,10.574,5.678,19.817,14.147,24.861v53.916h29.541v-53.916C279.239,355.091,284.917,345.848,284.917,335.274z"/>
<path style="fill:#F2F2F2;" d="M155.885,227.583v-83.366c0-55.291,44.822-100.113,100.113-100.113l0,0
	c55.291,0,100.113,44.822,100.113,100.113v83.367h33.826v-83.445C389.94,70.166,329.972,10.199,256,10.199l0,0
	c-73.973,0-133.94,59.967-133.94,133.94v83.445h33.826V227.583z"/>
<g>
	<path style="fill:#534741;" d="M416.616,217.384h-16.477v-73.245C400.139,64.66,335.479,0,256,0S111.86,64.66,111.86,144.139
		v73.245H95.383c-5.632,0-10.199,4.566-10.199,10.199v193.706c0,50.018,40.692,90.71,90.71,90.71h160.211
		c50.018,0,90.71-40.692,90.71-90.71V227.583C426.815,221.95,422.249,217.384,416.616,217.384z M132.259,144.139
		c0-68.231,55.51-123.741,123.741-123.741S379.74,75.909,379.74,144.139v73.245h-13.428v-73.167
		c0-60.827-49.487-110.314-110.313-110.314S145.687,83.39,145.687,144.217v73.167h-13.428V144.139z M166.085,217.384v-73.167
		c0-49.579,40.336-89.915,89.914-89.915s89.914,40.336,89.914,89.915v73.167H166.085z M406.416,237.782v183.507
		c0,38.77-31.542,70.311-70.311,70.311H175.894c-38.77,0-70.311-31.542-70.311-70.311V237.782H406.416z"/>
	<path style="fill:#534741;" d="M256,296.157c-21.568,0-39.117,17.548-39.117,39.117c0,11.665,5.303,22.728,14.146,30.098v48.679
		c0,5.633,4.567,10.199,10.199,10.199h29.542c5.632,0,10.199-4.566,10.199-10.199v-48.679c8.844-7.37,14.146-18.433,14.146-30.098
		C295.117,313.705,277.568,296.157,256,296.157z M265.552,351.372c-3.088,1.839-4.981,5.168-4.981,8.763v43.716h-9.144v-43.716
		c0-3.594-1.892-6.924-4.981-8.763c-5.739-3.418-9.165-9.435-9.165-16.097c0-10.322,8.397-18.719,18.719-18.719
		s18.719,8.397,18.719,18.719C274.718,341.936,271.291,347.954,265.552,351.372z"/>
	<path style="fill:#534741;" d="M243.265,257.495c0-5.633-4.567-10.199-10.199-10.199H126.368c-5.632,0-10.199,4.566-10.199,10.199
		c0,5.633,4.567,10.199,10.199,10.199h106.697C238.698,267.694,243.265,263.128,243.265,257.495z"/>
	<path style="fill:#534741;" d="M262.98,267.694h6.98c5.632,0,10.199-4.566,10.199-10.199s-4.567-10.199-10.199-10.199h-6.98
		c-5.632,0-10.199,4.566-10.199,10.199C252.781,263.128,257.347,267.694,262.98,267.694z"/>
</g>
</svg>