<svg xmlns="http://www.w3.org/2000/svg"  viewBox="0 0 50 50" width="50px" height="50px"><path fill="#ff9600" d="M46.122,33c-0.336-0.529-0.89-0.873-1.477-1.061c-0.282-0.091-0.573-0.125-0.867-0.151	c0.042-0.12,0.076-0.242,0.096-0.371c0.101-0.65-0.085-1.259-0.518-1.753c-0.459-0.525-1.041-0.756-1.663-0.832	c0.194-0.734,0.177-1.493-0.309-2.166c-0.769-1.063-2.291-1.525-3.552-1.374c-0.536,0.064-1,0.414-1,1c0,0.49,0.46,1.065,1,1	c0.579-0.07,1.472-0.03,1.885,0.479c0.358,0.442-0.209,1.226-0.442,1.61c-0.493,0.813,0.318,1.599,1.129,1.469	c0.355-0.057,1.276-0.262,1.496,0.179c0.011,0.021-0.017,0.169-0.06,0.279c-0.137,0.348-0.328,0.666-0.437,1.028	c-0.154,0.51,0.184,1.098,0.698,1.23c0.492,0.126,0.995,0.151,1.498,0.201c0.266,0.027,0.605,0.066,0.792,0.256	c0.016,0.017,0.065,0.055,0.052,0.008c0.023,0.082-0.076,0.237-0.12,0.314c-0.199,0.35-0.445,0.668-0.616,1.035	c-0.228,0.489-0.138,1.078,0.359,1.368c0.433,0.253,1.139,0.133,1.368-0.359c0.255-0.548,0.66-1.005,0.868-1.579	C46.52,34.214,46.464,33.539,46.122,33z"/><path fill="#ff9600" d="M37.109,24.045c0.018-0.011,0.036-0.023,0.054-0.034c0.117-0.063,0.21-0.149,0.281-0.258 c0.088-0.097,0.148-0.21,0.179-0.34c0.042-0.133,0.048-0.266,0.018-0.399c-0.006-0.133-0.046-0.257-0.119-0.372 c-0.052-0.067-0.104-0.135-0.156-0.202c-0.125-0.124-0.272-0.21-0.441-0.257c-0.089-0.012-0.177-0.024-0.266-0.036 c-0.181,0.001-0.349,0.046-0.505,0.137c-0.018,0.011-0.036,0.023-0.054,0.034c-0.117,0.063-0.21,0.149-0.281,0.258 c-0.088,0.097-0.148,0.21-0.179,0.34c-0.042,0.133-0.048,0.266-0.018,0.399c0.006,0.133,0.046,0.257,0.119,0.372 c0.052,0.067,0.104,0.135,0.156,0.202c0.125,0.124,0.272,0.21,0.441,0.257c0.089,0.012,0.177,0.024,0.266,0.036 C36.785,24.181,36.953,24.136,37.109,24.045L37.109,24.045z"/><path fill="#99c93c" d="M4.833,19.783c0.332,0.588,0.825,1.046,1.35,1.457c0.473,0.37,0.966,0.725,1.344,1.197 c0.15,0.187,0.479,0.293,0.707,0.293c0.245,0,0.538-0.109,0.707-0.293c0.175-0.191,0.305-0.441,0.293-0.707 c-0.012-0.089-0.024-0.177-0.036-0.266c-0.048-0.169-0.133-0.316-0.257-0.441c-0.661-0.823-1.665-1.28-2.314-2.113 c0.052,0.067,0.104,0.135,0.156,0.202c-0.082-0.108-0.157-0.221-0.224-0.339c-0.257-0.456-0.919-0.648-1.368-0.359 C4.731,18.712,4.558,19.296,4.833,19.783L4.833,19.783z"/><path fill="#99c93c" d="M3.838,25.753c0.091-0.017,0.182-0.034,0.273-0.049c0.059-0.01,0.34-0.079,0.088-0.014 c0.149-0.038,0.32-0.034,0.474-0.045c0.343-0.023,0.687-0.027,1.03-0.011c0.158,0.007,0.317,0.019,0.475,0.034 c0.028,0.003,0.333,0.04,0.182,0.019c-0.151-0.02,0.153,0.025,0.181,0.03c0.339,0.058,0.674,0.136,1.004,0.231 c0.503,0.144,1.111-0.176,1.23-0.698c0.121-0.533-0.16-1.076-0.698-1.23c-1.557-0.447-3.183-0.497-4.77-0.196 c-0.515,0.098-0.855,0.745-0.698,1.23C2.786,25.604,3.286,25.857,3.838,25.753L3.838,25.753z"/><path fill="#99c93c" d="M7.782,27.366c-0.702,0.585-1.302,1.302-1.776,2.083c-0.133,0.22-0.169,0.525-0.101,0.771 c0.064,0.232,0.243,0.483,0.46,0.598c0.232,0.123,0.513,0.184,0.771,0.101c0.251-0.081,0.459-0.231,0.598-0.46 c0.146-0.24,0.304-0.471,0.475-0.694c-0.052,0.067-0.104,0.135-0.156,0.202c0.338-0.436,0.721-0.833,1.144-1.186 c0.186-0.155,0.293-0.474,0.293-0.707c0-0.245-0.109-0.538-0.293-0.707c-0.191-0.175-0.441-0.305-0.707-0.293 c-0.089,0.012-0.177,0.024-0.266,0.036C8.054,27.156,7.907,27.242,7.782,27.366L7.782,27.366z"/><path fill="#fd2923" d="M36.083,45.369c0.617,0.329,1.187,0.566,1.909,0.73c0.648,0.147,1.561,0.139,2.143,0.008 c0.18-0.041,0.358-0.09,0.534-0.146c0.053-0.017,0.47-0.178,0.31-0.107c0.189-0.083,0.373-0.182,0.55-0.288 c0.052-0.031,0.467-0.306,0.342-0.211c1.262-0.955,1.669-2.275,1.665-3.725c-0.002-0.614-0.068-1.243-0.174-1.861 c-0.256-0.573-0.57-1.122-0.911-1.638c-1.062-1.604-2.26-3.129-3.431-4.654c-2.435-3.172-4.99-6.248-7.63-9.251 c1.153-0.861,2.297-1.732,3.421-2.63c1.856-1.482,3.698-3.008,5.399-4.668c1.543-1.505,2.935-3.246,3.552-5.345 c0.203-0.691,0.304-1.438,0.294-2.178c0.116-0.647,0.103-1.309-0.187-1.87c-0.125-0.673-0.428-1.288-1.037-1.723 c-1.384-0.99-3.611-0.034-4.955,0.605c-1.822,0.866-3.402,2.237-5.011,3.435c-1.638,1.22-3.277,2.437-4.892,3.687 c-1.436,1.112-2.837,2.267-4.206,3.461c-2.013-2.275-4.081-4.499-6.258-6.62c-1.977-1.927-4.099-3.819-6.654-4.939 C8.753,4.519,6.009,4.213,4.398,6.199C2.52,8.517,3.45,11.593,5.111,13.723c0.012,0.015,0.027,0.017,0.039,0.03 c2.467,4.619,6.569,7.967,10.872,11.03c-3.573,3.228-6.774,6.821-9.206,11.041c-0.642,1.114-1.184,2.302-1.008,3.618 c0.114,0.851,0.48,1.603,1.022,2.228c0.244,0.562,0.591,1.058,1.105,1.399c1.73,1.147,3.732-0.682,5.009-1.728 c1.772-1.45,3.427-3.049,5.14-4.569c1.787-1.587,3.591-3.155,5.411-4.704c0.238-0.202,0.479-0.4,0.72-0.598 c1.802,2.514,3.636,5.006,5.611,7.388c1.257,1.515,2.571,2.983,3.966,4.372C34.525,43.959,35.284,44.69,36.083,45.369z"/><path fill="#231f20" d="M16.492,24.362c2.407-2.231,4.814-4.462,7.221-6.693c0.473-0.438-0.235-1.144-0.707-0.707 c-2.407,2.231-4.814,4.462-7.221,6.693C15.312,24.093,16.02,24.799,16.492,24.362L16.492,24.362z"/><path fill="#231f20" d="M25.232,31.781c2.023-2.168,4.524-3.849,6.395-6.165c0.171-0.212,0.203-0.5,0-0.707 c-0.174-0.177-0.538-0.21-0.707,0c-1.871,2.316-4.372,3.996-6.395,6.165C24.086,31.544,24.792,32.253,25.232,31.781L25.232,31.781 z"/><path fill="#fff" d="M7.194,9.306c0.231,0.025-0.033,0.027-0.071-0.011c0.028,0.028,0.175,0.03,0.217,0.039 c0.144,0.028,0.287,0.062,0.428,0.101C7.91,9.473,8.05,9.516,8.189,9.564c0.07,0.024,0.138,0.051,0.207,0.075 c0.231,0.083-0.051,0.004-0.052-0.026C8.346,9.66,9.055,9.964,9.137,10.01c0.273,0.155,0.538,0.325,0.794,0.506 c0.063,0.044,0.125,0.089,0.187,0.135c0.028,0.02,0.235,0.175,0.081,0.059c-0.153-0.115,0.051,0.042,0.078,0.064 c0.061,0.049,0.121,0.099,0.181,0.149c0.239,0.201,0.472,0.409,0.701,0.621c0.472,0.44,0.925,0.9,1.378,1.359 c0.551,0.56,1.576,0.594,2.121,0c0.553-0.603,0.588-1.524,0-2.121c-1.034-1.051-2.085-2.081-3.304-2.921 c-1.25-0.862-2.653-1.393-4.16-1.557c-0.783-0.085-1.534,0.751-1.5,1.5C5.734,8.692,6.355,9.215,7.194,9.306L7.194,9.306z"/></svg>